<?xml version="1.0" encoding="UTF-8" standalone="no"?>
<svg
   xmlns:dc="http://purl.org/dc/elements/1.1/"
   xmlns:cc="http://creativecommons.org/ns#"
   xmlns:rdf="http://www.w3.org/1999/02/22-rdf-syntax-ns#"
   xmlns:svg="http://www.w3.org/2000/svg"
   xmlns="http://www.w3.org/2000/svg"
   xmlns:sodipodi="http://sodipodi.sourceforge.net/DTD/sodipodi-0.dtd"
   xmlns:inkscape="http://www.inkscape.org/namespaces/inkscape"
   version="1.1"
   id="svg132"
   xml:space="preserve"
   width="548"
   height="650.66669"
   viewBox="0 0 548 650.66669"
   sodipodi:docname="Logo.svg"
   inkscape:version="1.0.2 (e86c8708, 2021-01-15)"><metadata
     id="metadata138"><rdf:RDF><cc:Work
         rdf:about=""><dc:format>image/svg+xml</dc:format><dc:type
           rdf:resource="http://purl.org/dc/dcmitype/StillImage" /><dc:title></dc:title></cc:Work></rdf:RDF></metadata><defs
     id="defs136" /><sodipodi:namedview
     pagecolor="#ffffff"
     bordercolor="#666666"
     borderopacity="1"
     objecttolerance="10"
     gridtolerance="10"
     guidetolerance="10"
     inkscape:pageopacity="0"
     inkscape:pageshadow="2"
     inkscape:window-width="1160"
     inkscape:window-height="799"
     id="namedview134"
     showgrid="false"
     inkscape:zoom="0.94364751"
     inkscape:cx="285.6569"
     inkscape:cy="365.60262"
     inkscape:window-x="0"
     inkscape:window-y="23"
     inkscape:window-maximized="0"
     inkscape:current-layer="g140" /><g
     id="g140"
     inkscape:groupmode="layer"
     inkscape:label="Logo"
     transform="matrix(1.3333333,0,0,-1.3333333,0,650.66667)"><g
       id="g142" /><g
       id="g144"><path
         d="M 0,488 H 411 V -7.200753e-6 H 0 Z"
         style="fill:#ffffff;fill-opacity:1;fill-rule:nonzero;stroke:none"
         id="path146" /><g
         id="g148"
         transform="matrix(-5.439017e-5,-5.693612e-5,-5.693612e-5,5.439017e-5,224.6328,354.6816)"><path
           d="M 0,652748.5 C 0,292245.4 298164,0 665968,0 c 221989.4,0 443979,0 665968,0 0,217582.8 0,435165.7 0,652748.5 0,360502.5 -298164,652748.5 -665968,652748.5 C 298164,1305497 0,1013251 0,652748.5 Z"
           style="fill:none;stroke:#767171;stroke-width:38100;stroke-linecap:butt;stroke-linejoin:miter;stroke-miterlimit:8;stroke-dasharray:none;stroke-opacity:1"
           id="path150" /></g><g
         id="g152"
         transform="matrix(7.874016e-5,0,0,-7.874016e-5,119.5,403.5)"><path
           d="M 0,730250 C 0,326944 181951.5,0 406400,0 c 224448.5,0 406400,326944 406400,730250 0,403306 -181951.5,730250 -406400,730250 C 181951.5,1460500 0,1133556 0,730250 Z"
           style="fill:none;stroke:#767171;stroke-width:38100;stroke-linecap:butt;stroke-linejoin:miter;stroke-miterlimit:8;stroke-dasharray:none;stroke-opacity:1"
           id="path154" /></g><g
         id="g156"
         transform="matrix(7.874016e-5,0,0,-7.874016e-5,136.5,403.5)"><path
           d="M 0,730250 C 0,326944 85289.75,0 190500,0 c 105210.2,0 190500,326944 190500,730250 0,403306 -85289.8,730250 -190500,730250 C 85289.75,1460500 0,1133556 0,730250 Z"
           style="fill:none;stroke:#767171;stroke-width:38100;stroke-linecap:butt;stroke-linejoin:miter;stroke-miterlimit:8;stroke-dasharray:none;stroke-opacity:1"
           id="path158" /></g><path
         d="m 141.5,286 c 0,1.933 1.567,3.5 3.5,3.5 h 14 c 1.933,0 3.5,-1.567 3.5,-3.5 V 179 c 0,-1.933 -1.567,-3.5 -3.5,-3.5 h -14 c -1.933,0 -3.5,1.567 -3.5,3.5 z"
         style="fill:#767171;fill-opacity:1;fill-rule:nonzero;stroke:none"
         id="path160" /><g
         id="g162"
         transform="matrix(7.874016e-5,0,0,-7.874016e-5,141.5,289.5)"><path
           d="M 0,44450.5 C 0,19901.17 19901.18,0 44450.53,0 H 222249.5 C 246798.8,0 266700,19901.17 266700,44450.5 V 1403350 c 0,24549 -19901.2,44450 -44450.5,44450 H 44450.53 C 19901.18,1447800 0,1427899 0,1403350 Z"
           style="fill:none;stroke:#767171;stroke-width:12700;stroke-linecap:butt;stroke-linejoin:miter;stroke-miterlimit:8;stroke-dasharray:none;stroke-opacity:1"
           id="path164" /></g><path
         d="m 256.5,307.9999 c 0,1.9331 1.567,3.5001 3.5001,3.5001 h 13.9998 c 1.9331,0 3.5001,-1.567 3.5001,-3.5001 V 179.0001 c 0,-1.9331 -1.567,-3.5001 -3.5001,-3.5001 h -13.9998 c -1.9331,0 -3.5001,1.567 -3.5001,3.5001 z"
         style="fill:#767171;fill-opacity:1;fill-rule:nonzero;stroke:none"
         id="path166" /><g
         id="g168"
         transform="matrix(7.874016e-5,0,0,-7.874016e-5,256.5,311.5)"><path
           d="M 0,44451.22 C 0,19901.49 19901.51,0 44451.26,0 H 222248.7 C 246798.5,0 266700,19901.49 266700,44451.22 V 1682749 c 0,24550 -19901.5,44451 -44451.3,44451 H 44451.26 C 19901.51,1727200 0,1707299 0,1682749 Z"
           style="fill:none;stroke:#767171;stroke-width:12700;stroke-linecap:butt;stroke-linejoin:miter;stroke-miterlimit:8;stroke-dasharray:none;stroke-opacity:1"
           id="path170" /></g><g
         id="g172"
         transform="matrix(7.874016e-5,0,0,-7.874016e-5,238,404)"><path
           d="M 0,596900 C 0,267241.2 159207.5,0 355600,0 c 196392.4,0 355600,267241.2 355600,596900 0,329658.8 -159207.6,596900 -355600,596900 C 159207.5,1193800 0,926558.8 0,596900 Z"
           style="fill:none;stroke:#767171;stroke-width:76200;stroke-linecap:butt;stroke-linejoin:miter;stroke-miterlimit:8;stroke-dasharray:none;stroke-opacity:1"
           id="path174" /></g><path
         d="m 256.5,353.5 c 0,9.9411 4.701,18 10.5,18 5.799,0 10.5,-8.0589 10.5,-18 0,-9.9411 -4.701,-18 -10.5,-18 -5.799,0 -10.5,8.0589 -10.5,18 z"
         style="fill:#767171;fill-opacity:1;fill-rule:nonzero;stroke:none"
         id="path176" /><g
         id="g178"
         transform="matrix(7.874016e-5,0,0,-7.874016e-5,256.5,371.5)"><path
           d="M 0,228600 C 0,102347.7 59702.82,0 133350,0 c 73647.2,0 133350,102347.7 133350,228600 0,126252.3 -59702.8,228600 -133350,228600 C 59702.82,457200 0,354852.3 0,228600 Z"
           style="fill:none;stroke:#767171;stroke-width:12700;stroke-linecap:butt;stroke-linejoin:miter;stroke-miterlimit:8;stroke-dasharray:none;stroke-opacity:1"
           id="path180" /></g><g
         id="g182"
         transform="translate(64.87244,-370)"><text
           transform="matrix(1,0,0,-1,0,488)"
           style="font-variant:normal;font-weight:normal;font-size:32px;font-family:Athelas;-inkscape-font-specification:Athelas-Regular;writing-mode:lr-tb;fill:#000000;fill-opacity:1;fill-rule:nonzero;stroke:none"
           id="text186"><tspan
             x="0 19.375999 34.495998 46.383999 61.888 68.624001 91.136002 97.872002 118.304 133.168 150.65601 161.968 178.464 195.952 213.82401 227.696 236.448 253.808 262.81601"
             y="0"
             sodipodi:role="line"
             id="tspan184">Easy &amp; Reproducible</tspan></text></g><g
         id="g188"
         transform="translate(108.1474,-412)"><text
           transform="matrix(1,0,0,-1,0,488)"
           style="font-variant:normal;font-weight:bold;font-size:32px;font-family:Athelas;-inkscape-font-specification:Athelas-Bold;writing-mode:lr-tb;fill:#000000;fill-opacity:1;fill-rule:nonzero;stroke:none"
           id="text192"><tspan
             x="0 16.454399 33.580799 50.707199"
             y="0"
             sodipodi:role="line"
             id="tspan190">Food</tspan></text></g><g
         id="g194"
         transform="translate(183.7274,-412)"><text
           transform="matrix(1,0,0,-1,0,488)"
           style="font-variant:normal;font-weight:normal;font-size:36px;font-family:Athelas;-inkscape-font-specification:Athelas-Regular;writing-mode:lr-tb;fill:#000000;fill-opacity:1;fill-rule:nonzero;stroke:none"
           id="text198"><tspan
             x="0 23.014799 39.765598 55.400398 65.2752 85.014 101.7648"
             y="0"
             sodipodi:role="line"
             id="tspan196">Recipes</tspan></text></g></g></g></svg>
